HIERARCHY
ROOT Hips
{
 OFFSET 0.000000 0.000000 0.000000
 CHANNELS 6 Xposition Yposition Zposition Yrotation Xrotation Zrotation
 JOINT Chest
 {
  OFFSET 0.000000 9.585900 0.002600
  CHANNELS 3 Yrotation Xrotation Zrotation
  JOINT Chest2
  {
   OFFSET 0.000000 9.601200 -0.005300
   CHANNELS 3 Yrotation Xrotation Zrotation
   JOINT Chest3
   {
    OFFSET 0.000000 9.561800 0.000000
    CHANNELS 3 Yrotation Xrotation Zrotation
    JOINT Chest4
    {
     OFFSET 0.000000 9.552100 0.000000
     CHANNELS 3 Yrotation Xrotation Zrotation
     JOINT Neck
     {
      OFFSET 0.000000 14.453000 0.000000
      CHANNELS 3 Yrotation Xrotation Zrotation
      JOINT Head
      {
       OFFSET 0.000000 8.936500 -0.011300
       CHANNELS 3 Yrotation Xrotation Zrotation
       End Site
       {
        OFFSET 0.000000 17.073600 -0.006000
       }
      }
     }
     JOINT RightCollar
     {
      OFFSET -2.921100 9.558500 0.000000
      CHANNELS 3 Yrotation Xrotation Zrotation
      JOINT RightShoulder
      {
       OFFSET -13.519700 0.000000 0.000000
       CHANNELS 3 Yrotation Xrotation Zrotation
       JOINT RightElbow
       {
        OFFSET 0.000000 -29.696600 0.000000
        CHANNELS 3 Yrotation Xrotation Zrotation
        JOINT RightWrist
        {
         OFFSET 0.000000 -24.004700 0.000000
         CHANNELS 3 Yrotation Xrotation Zrotation
         End Site
         {
          OFFSET 0.000000 -17.728500 0.000000
         }
        }
       }
      }
     }
     JOINT LeftCollar
     {
      OFFSET 2.921100 9.558500 0.000000
      CHANNELS 3 Yrotation Xrotation Zrotation
      JOINT LeftShoulder
      {
       OFFSET 13.519700 0.000000 0.000000
       CHANNELS 3 Yrotation Xrotation Zrotation
       JOINT LeftElbow
       {
        OFFSET 0.000000 -29.696600 0.000000
        CHANNELS 3 Yrotation Xrotation Zrotation
        JOINT LeftWrist
        {
         OFFSET 0.000000 -24.004700 0.000000
         CHANNELS 3 Yrotation Xrotation Zrotation
         End Site
         {
          OFFSET 0.000000 -17.728500 0.000000
         }
        }
       }
      }
     }
    }
   }
  }
 }
 JOINT RightHip
 {
  OFFSET -7.771700 -0.012900 -0.001300
  CHANNELS 3 Yrotation Xrotation Zrotation
  JOINT RightKnee
  {
   OFFSET 0.000000 -40.869800 0.001200
   CHANNELS 3 Yrotation Xrotation Zrotation
   JOINT RightAnkle
   {
    OFFSET 0.000000 -39.717900 0.002100
    CHANNELS 3 Yrotation Xrotation Zrotation
    JOINT RightToe
    {
     OFFSET 0.000000 -4.965400 11.033500
     CHANNELS 3 Yrotation Xrotation Zrotation
     End Site
     {
      OFFSET 0.000000 -1.423100 5.872300
     }
    }
   }
  }
 }
 JOINT LeftHip
 {
  OFFSET 7.771700 -0.012900 -0.001300
  CHANNELS 3 Yrotation Xrotation Zrotation
  JOINT LeftKnee
  {
   OFFSET 0.000000 -40.869800 0.001200
   CHANNELS 3 Yrotation Xrotation Zrotation
   JOINT LeftAnkle
   {
    OFFSET 0.000000 -39.717900 0.002100
    CHANNELS 3 Yrotation Xrotation Zrotation
    JOINT LeftToe
    {
     OFFSET 0.000000 -4.965400 11.033500
     CHANNELS 3 Yrotation Xrotation Zrotation
     End Site
     {
      OFFSET 0.000000 -1.423100 5.872300
     }
    }
   }
  }
 }
}
MOTION
Frames: 7
Frame Time: 0.008333
0.000000 85.388000 0.000000 0.000000 -5.767877 0.000000 0.000000 11.653817 0.000000 0.000000 -5.885947 0.000000 0.000000 -0.000000 0.000000 0.000000 -0.000000 0.000000 0.000000 12.528835 0.000000 0.000000 0.711642 0.000000 0.000000 -0.000000 0.000000 0.000000 0.000000 -90.000000 0.000000 -2.309062 0.000000 0.000000 2.309062 0.000000 0.000000 -0.000000 0.000000 0.000000 -0.000000 90.000000 0.000000 -2.309062 0.000000 0.000000 2.309062 0.000000 0.000000 8.520406 0.000000 0.000000 1.905762 0.000000 -0.000000 -4.658285 0.000000 0.000000 -0.000000 0.000000 0.000000 8.520406 0.000000 0.000000 1.905762 0.000000 -0.000000 -4.658285 0.000000 0.000000 -0.000000 0.000000
2.984785 52.090462 36.599259 172.068575 -36.369570 -2.543217 4.863768 24.609616 2.544700 0.696367 3.909501 0.476602 1.111491 6.180118 0.782620 4.158014 20.371085 3.137385 1.260381 16.874699 4.497728 0.785883 -4.414518 7.889574 -5.826950 -0.175188 -3.201016 -1.438945 -7.203585 -0.541188 -93.778252 -35.091352 135.716685 8.699755 14.486161 64.388279 -7.336379 1.269516 1.164913 7.089324 -13.529720 4.860582 85.508677 -29.725560 -135.116431 -5.529594 21.795088 -68.930341 -4.907370 -44.816336 3.544788 169.491627 86.119672 173.668998 -1.724151 -12.152394 -2.174976 0.061713 -0.227967 0.017984 -0.213583 -41.303496 5.471496 75.738224 83.068938 65.741408 -5.707346 -13.441663 9.717463 0.417953 1.821747 0.219297
2.982616 52.092838 36.601395 172.055342 -36.400288 -2.528457 4.887431 24.677096 2.546897 0.693347 3.900476 0.476399 1.143456 6.297827 0.784960 4.157077 20.345824 3.129859 1.280950 16.876523 4.539291 0.809785 -4.410862 7.959255 -5.824885 -0.109825 -3.148350 -1.285571 -7.182528 -0.575004 -93.491159 -35.157189 135.403652 8.738886 14.491786 64.523952 -7.368241 1.331693 1.170630 6.912178 -13.427777 4.869554 85.327076 -29.659471 -134.842069 -5.663286 21.871556 -69.154384 -4.915922 -44.785836 3.548789 169.389367 86.122080 173.550312 -1.725377 -12.145411 -2.179693 0.062882 -0.230206 0.018522 -0.190425 -41.269945 5.459636 75.761717 83.042924 65.761194 -5.728606 -13.422750 9.721581 0.426710 1.807365 0.208162
2.981079 52.094360 36.606313 172.040824 -36.420780 -2.520308 4.921316 24.751750 2.550407 0.692803 3.896954 0.482631 1.155483 6.346572 0.778807 4.152693 20.304337 3.131210 1.320414 16.935684 4.579653 0.847670 -4.416036 8.045797 -5.810702 0.003394 -3.118317 -1.132117 -7.148973 -0.593885 -93.145562 -35.227721 135.029411 8.785641 14.507193 64.605327 -7.387381 1.440807 1.163649 6.732465 -13.317557 4.876422 85.144441 -29.603519 -134.535486 -5.817634 21.962786 -69.320830 -4.913838 -44.766189 3.553652 169.304688 86.129900 173.462433 -1.724601 -12.136582 -2.189257 0.063203 -0.230342 0.023194 -0.158055 -41.246657 5.443303 75.758588 83.013395 65.767990 -5.737498 -13.419424 9.713617 0.413622 1.807289 0.214327
2.980221 52.096609 36.611464 172.022560 -36.447677 -2.514676 4.943302 24.784836 2.557878 0.704455 3.939861 0.477255 1.161197 6.375037 0.772049 4.181392 20.376035 3.121127 1.354416 16.898261 4.646135 0.899571 -4.427993 8.146392 -5.817374 0.017957 -3.069315 -0.973863 -7.102181 -0.596901 -92.764540 -35.299558 134.618219 8.832890 14.529421 64.604802 -7.420634 1.447674 1.189312 6.553179 -13.200632 4.884493 84.964659 -29.560778 -134.211395 -5.998557 22.068315 -69.411719 -4.904884 -44.738422 3.560258 169.254316 86.140641 173.413920 -1.721810 -12.128510 -2.195839 0.061086 -0.228178 0.024328 -0.122985 -41.217177 5.430824 75.733545 82.988292 65.758588 -5.740177 -13.414165 9.687361 0.408387 1.806194 0.229908
2.980073 52.101140 36.614106 171.995541 -36.498496 -2.505052 4.979054 24.860634 2.560200 0.710366 3.960748 0.476399 1.169815 6.403106 0.764769 4.211517 20.448063 3.106566 1.396940 16.857532 4.720803 0.960976 -4.446195 8.255753 -5.826154 0.025507 -3.030228 -0.808891 -7.036680 -0.586201 -92.383365 -35.373250 134.198141 8.870272 14.553901 64.498750 -7.449983 1.442640 1.215104 6.378604 -13.078892 4.898241 84.804804 -29.539430 -133.887998 -6.196697 22.174576 -69.416358 -4.899057 -44.682849 3.574215 169.173372 86.154091 173.327117 -1.722958 -12.124530 -2.200494 0.060525 -0.224196 0.023136 -0.078611 -41.161417 5.421338 75.684582 82.970282 65.728165 -5.753934 -13.400341 9.672285 0.426865 1.798942 0.229334
2.980855 52.103619 36.619494 171.973779 -36.531439 -2.503588 5.011543 24.928414 2.544043 0.716615 3.967638 0.491951 1.179826 6.429652 0.756614 4.238008 20.487926 3.095862 1.446976 16.844730 4.791512 1.028718 -4.470242 8.369645 -5.841092 -0.009986 -2.987685 -0.620794 -6.879255 -0.593286 -92.029855 -35.452296 133.799510 8.889138 14.578518 64.263129 -7.475817 1.458936 1.226551 6.216503 -12.957928 4.921689 84.686038 -29.546398 -133.581346 -6.393773 22.266337 -69.344527 -4.905364 -44.647426 3.602881 169.176474 86.169182 173.321603 -1.725132 -12.114486 -2.203695 0.058868 -0.224143 0.023577 -0.043360 -41.126622 5.418104 75.636086 82.956056 65.697746 -5.759917 -13.391432 9.662780 0.425591 1.794317 0.236127
